<?xml version="1.0" ?>
<!DOCTYPE svg  PUBLIC '-//W3C//DTD SVG 1.1//EN'  'http://www.w3.org/Graphics/SVG/1.1/DTD/svg11.dtd'>
<svg enable-background="new 0 0 164 164" height="164px" id="Layer_1" version="1.1" viewBox="0 0 164 164" width="164px" xml:space="preserve" xmlns="http://www.w3.org/2000/svg" xmlns:xlink="http://www.w3.org/1999/xlink">
    <g>
        <path clip-rule="evenodd" d="M88.623,125.037c-31.35,0-56.764-25.414-56.764-56.764   S57.273,11.51,88.623,11.51s56.763,25.414,56.763,56.763S119.973,125.037,88.623,125.037L88.623,125.037z M87.567,39.134   c0.518-0.162,1.036-0.324,1.554-0.486c0.06-0.361,0.12-0.722,0.181-1.083c0.203-0.112,0.406-0.223,0.609-0.334   c-1.06-0.307-1.751,0.071-2.786,0.435c-0.156,0.329-0.313,0.658-0.47,0.987C86.959,38.813,87.263,38.974,87.567,39.134   L87.567,39.134z M43.879,79.596c0.372-0.115,0.743-0.23,1.114-0.345c-0.218-0.096-0.437-0.192-0.655-0.288   C44.185,79.173,44.033,79.385,43.879,79.596L43.879,79.596z M48.963,75.029c-0.271,1.366-1.012,3.537,0.063,4.664   C48.875,78.093,49.213,76.67,48.963,75.029L48.963,75.029z M47.125,72.492c0.093,0.186,0.187,0.372,0.28,0.557   c-0.248-1.879-0.013-3.392,0.097-5.254C47.063,69.53,46.839,70.715,47.125,72.492L47.125,72.492z M51.123,66.352   c-0.407-0.135-0.815-0.27-1.223-0.405l-0.768,2.103c0.135-0.05,0.271-0.101,0.407-0.151c0.072,0.286,0.144,0.572,0.216,0.857   c0.243-0.086,0.486-0.172,0.729-0.258c-0.086-0.1-0.172-0.2-0.258-0.3l1.456-1.054c-0.139-0.046-0.279-0.092-0.418-0.138   c0.018-0.197,0.035-0.393,0.053-0.59C51.251,66.394,51.188,66.373,51.123,66.352L51.123,66.352z M50.206,63.619   c-0.253,0.19-0.507,0.38-0.76,0.57c0.204-0.04,0.407-0.08,0.611-0.119C50.106,63.919,50.157,63.769,50.206,63.619L50.206,63.619z    M54.023,63.418c-0.405,0.768-0.343,1.26-0.275,2.124C53.84,64.834,53.932,64.126,54.023,63.418L54.023,63.418z M39.68,48.275   l0.64-1.932C39.878,46.831,39.836,47.645,39.68,48.275L39.68,48.275z M46.068,46.998c-0.095,0.468-0.191,0.937-0.286,1.405   l0.771-0.495c-0.1-0.128-0.201-0.256-0.301-0.385c0.061-0.29,0.121-0.579,0.181-0.869C46.311,46.769,46.189,46.883,46.068,46.998   L46.068,46.998z M81.717,40.947c-0.038-0.722-0.227-1.322,0.265-1.877c0.214,0.25,0.43,0.5,0.645,0.749   c0.179-0.072,0.357-0.144,0.535-0.215c-0.111-0.346-0.223-0.693-0.334-1.039c-0.282,0.133-0.564,0.265-0.846,0.398l0.716-1.191   c-0.204-0.21-0.408-0.421-0.613-0.631c0.032-0.418,0.063-0.836,0.094-1.255c0.243,0.129,0.486,0.256,0.73,0.385   c0.081-0.175,0.163-0.35,0.245-0.525c0.755,0.11,1.265,0.534,1.899,0.95c-0.048-0.646-0.096-1.294-0.144-1.94l-2.531-0.66   c-0.207,0.123-0.414,0.244-0.621,0.366c-0.046-0.182-0.094-0.364-0.141-0.547c-1.848,1.318-1.979,2.843-1.599,5.042   c-0.175-0.046-0.35-0.092-0.525-0.138c-0.728,0.548-1.247,0.878-1.605,1.719c0.92,1.276,1.339,1.649,2.845,2.085L81.717,40.947   L81.717,40.947z M117.425,37.844c-0.514,1.403-0.818,2.095-1.999,3.017c0.279,0.021,0.557,0.042,0.836,0.063   c0.429-0.394,0.856-0.788,1.284-1.182C117.506,39.109,117.466,38.476,117.425,37.844L117.425,37.844z M98.055,40.143   c-0.393,0.144-0.785,0.288-1.179,0.431c0.098,0.354,0.195,0.708,0.292,1.061c0.093-0.315,0.185-0.629,0.277-0.944   c1.051,0.169,2.102,0.339,3.153,0.509C99.751,40.848,98.902,40.496,98.055,40.143L98.055,40.143z M84.876,22.134   c-0.619,0.016-0.823,0.306-1.274,0.721c0.375,0.017,0.75,0.034,1.125,0.051C84.776,22.649,84.826,22.392,84.876,22.134   L84.876,22.134z M71.862,17.968c0.292-0.094,0.586-0.188,0.878-0.281c0.039-0.083,0.078-0.165,0.118-0.247   c-0.294,0.148-2.58,0.44-3.419,0.725c0.179,0.143,0.358,0.285,0.537,0.428C70.596,18.398,71.282,18.259,71.862,17.968   L71.862,17.968z M129.558,52.327c0.627-0.872,0.744-1.338,0.8-2.414c3.4-1.141,0.87-8.893-1.222-10.655   c-0.214,0.18-0.429,0.358-0.643,0.538c-1.397-1.271-1.096-2.833-1.199-4.683c0.704-0.255,1.407-0.51,2.11-0.765   c-0.459-0.7-0.917-1.4-1.376-2.099c0.333,0.181,0.665,0.363,0.998,0.544c-0.297-0.539-0.596-1.078-0.893-1.617   c0.707,0.802,3.688,6.102,6.107,9.38c-2.424-5.855-7.14-13.534-11.598-15.342c0.098,0.532,0.194,1.064,0.292,1.597   c-1.464-0.799-2.783-0.874-4.44-1.042c0.286,0.286,0.573,0.571,0.859,0.856c-1.491,0.216-1.847-0.727-3.176-1.087   c-1.21-0.328-2.367,0.21-3.561-0.357c-0.407,0.151-0.813,0.302-1.221,0.453c0.378-0.387,0.756-0.773,1.134-1.16   c-0.352-1.196-1.771-1.02-2.619-1.796c-1.932,0.461-4.539,1.763-6.324,0.763c-0.442,0.88-0.685,1.704-0.917,2.661   c-0.183-0.061-0.365-0.121-0.548-0.182c0.154-0.854,0.136-1.875,0.757-2.5c-0.236-0.186-0.473-0.371-0.709-0.556   c-0.786,0.376-1.16,0.574-1.616,1.322c-2.094-0.527-5.917-1.057-7.381-2.623c-0.479,0.401-0.957,0.802-1.435,1.203   c-0.108-0.286-0.216-0.571-0.323-0.857c0.16-0.09,0.321-0.179,0.481-0.269c-0.179-0.927-0.323-1.381-0.947-2.1   c0.178-0.072,0.356-0.144,0.535-0.215c-0.058-0.186-0.115-0.372-0.172-0.557c-2.305-0.677-13.225-2.087-14.667,0.393   c0.696-0.02,1.394-0.039,2.09-0.058c-1.111,0.722-2.321,1.295-3.491,1.915c3.22,0.712,8.302-2.604,11.265-1.447   c-0.153,0.175-0.307,0.351-0.459,0.526c-1.496-0.037-3.921-0.296-4.737,1.252c0.611,0.203,1.223,0.405,1.834,0.608   c0.076,0.239,0.152,0.478,0.228,0.718c-0.819-0.331-1.638-0.662-2.458-0.993c-0.317,0.204-0.635,0.409-0.953,0.613   c-1.27-0.477-2.491,0.473-3.878,0.489c-0.291-0.388-1.507-0.659-1.966-0.854c0.092-0.208,0.185-0.415,0.277-0.623   c-0.268-0.053-0.536-0.105-0.804-0.159c0.868-0.903,2.056-1.045,3.246-1.389c-1.609-0.091-2.903,0.681-4.512,0.898   c-0.076-0.096-0.15-0.193-0.226-0.289c-1.901,0.275-3.437,0.127-5.351-0.129c-1.289,1.367-2.38,2.011-4.101,2.785   c-0.058-0.472-0.116-0.943-0.174-1.415c-1.9,0.854-3.596,2.003-5.354,3.12c0.046,0.075,0.093,0.15,0.139,0.225   c-0.26,0.354-0.52,0.708-0.78,1.063c0.189-0.032,0.379-0.065,0.568-0.098c0.089,0.161,0.18,0.321,0.269,0.482   c3.884-1.716,3.884-1.596,7.867-1.431c-0.87,2.168-1.448,3.892-3.141,5.496c0.916-0.29,1.369-0.575,2.056-1.248   c0.04,0.239,0.08,0.479,0.12,0.718c0.082-0.032,0.164-0.064,0.247-0.097c0.246-1.8,0.773-3.503,2.296-4.562   c0.15,0.086,0.301,0.171,0.451,0.256c-0.689,1.223-1.01,2.091-1.151,3.477c-1.061,0.793-1.322,1.53-1.957,2.673   c0.204,0.139,0.408,0.278,0.612,0.417c0.015,0.279,0.03,0.558,0.044,0.836c0.125-0.125,0.25-0.25,0.375-0.376   c-0.026-0.282-0.051-0.564-0.077-0.847c0.719-0.227,1.436-0.453,2.154-0.68c0.161,0.197,0.322,0.393,0.483,0.589   c-0.118,0.14-0.235,0.279-0.353,0.419c0.768-0.093,1.191-0.195,1.866,0.189c0.369-1.861,3.516-3.019,5.249-2.691   c0.055,0.269,0.108,0.536,0.163,0.804c-0.275,0.076-0.55,0.151-0.825,0.227c-0.007,0.343-0.013,0.686-0.02,1.029   c0.354-0.097,0.707-0.194,1.061-0.292c0.018-0.304,0.035-0.607,0.051-0.912c0.873,0.242,1.745,0.483,2.618,0.725   c-0.186,0.2-0.371,0.401-0.557,0.602c-0.479,0.008-0.958,0.016-1.437,0.024c0.267,0.957,0.533,1.914,0.799,2.871   c-0.204,0.29-0.407,0.58-0.61,0.87c0.026,0.014,0.051,0.028,0.077,0.042c-1.175-0.566-2.871,0.388-3.008-2.191   c-1.214-0.562-2.356-0.249-3.336-1.141c-0.032,0.168-0.064,0.336-0.096,0.504c-0.608-0.067-1.001-0.387-1.513-0.715   c-0.942,0.3-1.638,1.884-2.247,2.685c0.959,0.317,1.5,1.299,2.138,2.065c0.824,0.023,1.411,0.038,2.156,0.393   c-2.489,2.646-4.128,3.417-5.108,3.344c-0.333-0.396-0.667-0.792-1-1.188c-0.432-0.024-0.865-0.048-1.297-0.072   c-0.908-1.257-1.429-2.219-1.84-3.717c-0.458-0.021-0.915-0.042-1.373-0.062c-0.321,0.322-0.643,0.645-0.963,0.967   c-0.211-0.01-0.422-0.021-0.633-0.031c0.044-1.625-0.531-4.068-0.289-5.167c1.084-0.382,1.712-0.85,2.57-1.613   c-0.121,0.007-0.243,0.015-0.364,0.022c0.071-0.179,0.143-0.357,0.213-0.536c-1.442-0.061-1.201-1.714-3.756-1.708   c0.07-0.429,0.141-0.858,0.212-1.287c-9.552,5.188-15.241,11.98-18.355,22.422c0.452,0.566,0.999,1.166,1.792,1.165   c0.526,0.633,0.216,2.289,0.221,3.109c0.265,0.099,0.529,0.199,0.794,0.298c0.241,2.818-1.864,3.287-1.806,8.581   c0.116,10.62-3.476,10.813,0.753,23.607c1.072,3.243,1.543,7.064,5.632,7.151c1.179-1.526,1.79-2.311,1.696-4.26   c0.504-0.083,1.008-0.166,1.512-0.249c-0.103-1.236-0.205-2.473-0.308-3.709c1.353-0.745,2.632-1.201,4.114-1.638   c0.546-2.734,1.447-5.762,0.605-8.515c3.165-5.828,7.801-2.321,14.817-11.307c-1.906-0.429-3.812-0.858-5.717-1.287   c-0.222-0.765-0.315-1.221-0.926-1.735c0.25-0.037,0.5-0.073,0.75-0.109c0.36-2.422-1.221-5.661-1.023-8.125   c0.395-0.905,0.79-1.81,1.185-2.715c0.057-0.485-0.255-4.42,1.787-7.444c-0.124,0.625-0.248,1.251-0.372,1.877   c0.4-0.291,0.8-0.582,1.2-0.872c-0.257,0.291-0.514,0.581-0.771,0.871c0.111,0.061,0.222,0.121,0.333,0.182   c-0.787,4.247-0.348,2.261-0.398,4.653c-0.284,0.858-0.569,1.717-0.853,2.575c-0.048,0.269,0.577,1.582-0.724,8.439   c3.718,1.869,11.758,0.736,16.442-2.734c-0.571-1.081-1.141-2.163-1.711-3.245c0.207-0.372,0.413-0.744,0.619-1.116   c-2.313,0.333-1.872,1.386-4.395,0.33c-0.001-0.719,0.274-1.041,0.684-1.63c-0.062-0.104-0.123-0.207-0.184-0.311   c-0.303,0.34-0.606,0.68-0.91,1.021c0.353-1.783-0.175-3.526,0.559-5.137c0.356,0.036,0.524-0.086,0.836-0.259   c0.616,2.649,0.439,2.965,2.24,5.207c0.54,0.023,1.08,0.048,1.619,0.072c0.044,0.514,0.088,1.028,0.132,1.543   c2.305,1.364,4.489,2.286,7.029,3.149c0.539,1.714,1.078,3.429,1.618,5.144c0.468,0.06,0.937,0.12,1.404,0.18   c0.406,4.313-1.247,9.641,1.088,13.54c3.292-1.535,3.11-2.763,4.545-6.174c3.605-1.377,7.243-2.686,10.788-4.213   c1.256,3.388,2.408,3.879,1.472,7.202c0.812-0.292,1.622-0.582,2.433-0.873c1.547,2.674,0.506,6.215-0.658,8.89   c2.335,3.903-0.409,3.439,2.651,7.092c0.239-0.111,0.479-0.223,0.718-0.334c0.395-6.498-3.813-3.926-0.127-10.399   c1.746,1.576,2.4,1.981,2.474,4.391c1.321-0.789,2.642-1.578,3.963-2.366c0.44-4.341-0.008-3.655-1.558-7.374   c1.009-1.406,1.609-2.092,3.395-1.947c0.062,0.425,0.123,0.85,0.185,1.275c0.11-0.333,0.22-0.665,0.33-0.998   c0.64-0.098,1.279-0.196,1.919-0.293c0.156-0.258,0.313-0.516,0.47-0.773c0.673,0.021,1.345,0.041,2.017,0.061   c2.824-2.981,5.396-7.65,1.619-11.143c0.142-0.429,0.284-0.859,0.426-1.287c0.357-0.144,0.715-0.288,1.071-0.431   c0.025-0.183,0.05-0.365,0.074-0.547c-0.329-0.157-0.658-0.313-0.987-0.47c-0.186,0.201-0.371,0.401-0.557,0.602   c-0.694-0.23-1.338-1.101-1.321-1.831c0.943-0.16,1.287-0.962,1.852-1.708c0.427,0.709,0.21,1.29,0.089,2.101   c0.472-0.343,0.942-0.688,1.414-1.031c0.196,0.125,0.394,0.249,0.59,0.374c-0.017,0.447-0.034,0.894-0.051,1.34   c0.311,0.103,0.622,0.206,0.934,0.309c0.12,1.04,0.239,2.08,0.359,3.119c0.34-0.126,0.679-0.251,1.018-0.377   C131.42,55.272,130.44,53.87,129.558,52.327L129.558,52.327z M88.975,12.563c-2.307,0.122-4.605,0.24-6.904,0.463   c2.849,0.403,5.477,0.771,8.342,0.585c-0.018,0.125-0.035,0.25-0.053,0.375c2.019,0.35,8.341,2.236,10.155,0.935   c-0.008-0.3-0.016-0.601-0.023-0.9C96.653,13.535,92.813,13.049,88.975,12.563L88.975,12.563z M88.597,122.943   c0.075-0.011,0.15-0.021,0.225-0.032c-11.812-0.94-16.272-2.55-27.504-7.431C69.132,120.72,79.339,122.681,88.597,122.943   L88.597,122.943z M128.671,87.785c-0.686,0.955-0.728,1.66-0.831,2.832C128.54,89.634,128.943,89.001,128.671,87.785   L128.671,87.785z M125.914,92.444c-0.007,0.164-0.014,0.328-0.021,0.492c0.175,0.011,0.35,0.021,0.525,0.032   c-0.019-0.197-0.037-0.394-0.055-0.59C126.214,92.4,126.063,92.422,125.914,92.444L125.914,92.444z M123.944,88.47   c-1.405,0.745-2.571,2.545-2.865,4.123c0.11-0.012,0.221-0.022,0.332-0.033c-0.221,0.63-0.44,1.259-0.661,1.889   c0.196-0.019,0.394-0.037,0.59-0.055c0.312-0.941,0.444-1.895,1.228-2.521c-0.052,0.66-0.104,1.321-0.157,1.983   c0.286-0.108,0.572-0.216,0.857-0.323c-0.041-0.74-0.081-1.479-0.122-2.22c0.578-0.272,1.157-0.546,1.735-0.818   c-0.029-0.128-0.058-0.257-0.087-0.386c-0.628,0.244-1.257,0.488-1.885,0.733c-0.076-0.204-0.151-0.407-0.227-0.611   c0.146-0.297,0.292-0.594,0.438-0.891c1.067,0.011,3.522,0.454,3.568-1.176C125.698,89.046,125.135,88.943,123.944,88.47   L123.944,88.47z M119.673,97.484c-0.257,0.058-0.515,0.115-0.771,0.173c0.251,0.214,0.501,0.428,0.752,0.642   c0.093-0.1,0.185-0.2,0.278-0.301C119.845,97.827,119.759,97.655,119.673,97.484L119.673,97.484z M120.004,96.809   c-0.075,0.082-0.149,0.164-0.225,0.247c0.929,0.031,1.618,0.229,2.314-0.412C121.397,96.698,120.701,96.753,120.004,96.809   L120.004,96.809z M122.868,97.542c-0.399,0.272-0.8,0.545-1.199,0.817c1.018-0.484,2.035-0.968,3.053-1.453   c-0.604,0.169-1.207,0.339-1.812,0.508C122.896,97.456,122.882,97.5,122.868,97.542L122.868,97.542z M129.778,94.581   c0,0.143,0,0.286,0,0.429c0.089-0.232,0.178-0.466,0.268-0.697C129.956,94.401,129.867,94.491,129.778,94.581L129.778,94.581z    M127.34,92.237c-0.022-0.007-0.043-0.015-0.064-0.021c-0.047,0.104-0.093,0.208-0.139,0.312c0.628,0.082,0.897,0.123,1.352,0.555   c0.043-0.236,0.085-0.472,0.127-0.708C128.19,92.329,127.765,92.283,127.34,92.237L127.34,92.237z M136.015,93.004   c0.055,0.16,0.108,0.321,0.162,0.481c0.475-0.33,0.492-0.593,0.63-1.148C136.543,92.56,136.278,92.781,136.015,93.004   L136.015,93.004z M128.766,80.924c-1.167,0.667-1.917,1.308-2.806,2.32c0.645,0.356,1.288,0.713,1.933,1.069   C128.756,83.281,129.619,82.237,128.766,80.924L128.766,80.924z M127.337,79.843c-0.217,0.369-0.435,0.737-0.651,1.105   c0.129,0.186,0.258,0.371,0.387,0.557c0.195-0.519,0.391-1.037,0.587-1.556C127.552,79.914,127.444,79.878,127.337,79.843   L127.337,79.843z M126.777,78.943c-0.021-0.007-0.042-0.014-0.063-0.021c-0.067,0.454-0.135,0.908-0.201,1.362   c0.328-0.272,0.656-0.544,0.984-0.816C127.258,79.293,127.018,79.118,126.777,78.943L126.777,78.943z M127.838,72.616   c-0.368-0.039-0.736-0.077-1.104-0.116c-0.348,1.575-0.778,2.908-0.452,4.493c0.268-0.018,0.535-0.037,0.804-0.055   c0.397,0.454,0.795,0.906,1.192,1.359c0.018-0.411,0.034-0.822,0.052-1.233c-0.502-0.464-1.003-0.928-1.504-1.391   C127.471,74.577,127.742,73.891,127.838,72.616L127.838,72.616z M125.074,79.237c-0.012-0.004-0.022-0.007-0.033-0.011   c-0.698,0.852-1.397,1.704-2.096,2.555C123.929,80.971,124.796,80.5,125.074,79.237L125.074,79.237z M114.202,96.208   c0.039-0.046,0.078-0.093,0.117-0.14c0.526,0.21,1.052,0.42,1.578,0.63c0.092-0.279,0.185-0.559,0.277-0.837   c-0.322-0.071-0.644-0.142-0.966-0.213c-0.032-0.225-0.065-0.45-0.098-0.675c-0.354-0.188-0.708-0.378-1.063-0.566   c-0.211,0.133-0.422,0.266-0.632,0.398c-1.681-0.505-2.163-1.698-3.979-0.926C110.731,95.313,112.383,95.605,114.202,96.208   L114.202,96.208z M112.787,90.775c-0.082,0.14-0.163,0.279-0.246,0.418c0.054,0.09,0.108,0.179,0.162,0.268   c0.146-0.153,0.292-0.308,0.438-0.461C113.023,90.925,112.905,90.85,112.787,90.775L112.787,90.775z M105.058,85.644   c0.104,0.296,0.209,0.593,0.313,0.89c0.061-0.147,0.121-0.294,0.182-0.44C105.388,85.942,105.223,85.793,105.058,85.644   L105.058,85.644z M104.481,81.453c4.637,9.228,0.542,7.377,5.694,11.815c0.345-0.79,0.69-1.581,1.035-2.372   c-1.114-1.077-0.363-1.979-0.928-3.236C109.177,86.023,105.889,82.048,104.481,81.453L104.481,81.453z M114.83,115.882   c6.173-0.794,14.307-9.123,16.82-17.681c-1.581,1.429-3.161,2.857-4.741,4.287c-0.126-0.196-0.251-0.393-0.377-0.589   c0.517-0.806,1.033-1.61,1.551-2.415c-2.195,0.577-3.579,1.059-5.324,2.486c-0.383-0.21-0.766-0.42-1.148-0.631   c-0.721,0.631-1.441,1.262-2.163,1.892c-0.307-0.042-0.614-0.085-0.922-0.127c-3.755,3.175-2.367,1.394-6.063,2.671   c-6.914,2.39-4.162,5.351-7.875,8.25c2.806,1.334,6.667-0.285,9.529-1.059C114.354,113.938,114.592,114.909,114.83,115.882   L114.83,115.882z M67.965,37.5c-0.382-0.067-0.765-0.135-1.147-0.202c-0.032,0.097-0.064,0.193-0.096,0.29   c0.758,0.251,0.975,0.29,1.694-0.046C68.265,37.527,68.115,37.513,67.965,37.5L67.965,37.5z M127.643,65.979   c-0.761,1.326-0.899,1.74-0.529,3.217C127.424,68.12,127.943,67.074,127.643,65.979L127.643,65.979z M122.49,68.273   c-0.011,0.104-0.021,0.208-0.031,0.311c0.149,0.014,0.3,0.028,0.45,0.042c-0.004-0.097-0.008-0.193-0.012-0.289   C122.762,68.316,122.626,68.294,122.49,68.273L122.49,68.273z M92.052,74.335c-0.994,1.042-1.251,1.734-1.162,3.187   c0.645,0.132,1.042-0.052,1.661-0.271c0.415-0.983,0.309-2.197-0.478-2.979C92.066,74.293,92.06,74.314,92.052,74.335   L92.052,74.335z M119.846,70.219c-0.67,0.029-0.924,0.153-1.468,0.549c-0.007,0.272-0.014,0.543-0.021,0.815   c0.223,0.121,0.444,0.243,0.666,0.363c0.477-0.391,0.767-0.758,1.102-1.278C120.032,70.519,119.939,70.369,119.846,70.219   L119.846,70.219z M132.206,57.812c-0.183,0.226-0.364,0.451-0.546,0.677c0.064,0.2,0.129,0.4,0.193,0.6   c0.107-0.072,0.215-0.143,0.322-0.215c0.111,0.561,0.224,1.122,0.335,1.683C132.745,59.329,132.903,58.854,132.206,57.812   L132.206,57.812z M133.836,58.28c0.046-0.175,0.092-0.351,0.139-0.526c-0.15-0.157-0.301-0.314-0.451-0.471   c-0.207,0.336-0.413,0.672-0.62,1.009c0.137,0.2,0.272,0.4,0.408,0.6C133.486,58.688,133.661,58.484,133.836,58.28L133.836,58.28z    M134.604,50.355c0.038,1.322,0.076,2.645,0.114,3.966c-0.186,0.022-0.371,0.044-0.557,0.065c-0.024,0.576-0.048,1.151-0.072,1.727   c-0.446,0.09-0.893,0.18-1.34,0.271c-0.206,0.336-0.413,0.672-0.619,1.009c0.089,0.125,0.179,0.25,0.269,0.375   c0.567-0.276,1.135-0.553,1.703-0.829c0.126,0.375,0.252,0.75,0.377,1.125c0.487-0.694,0.963-1.311,1.563-1.912   C135.772,54.014,135.592,52.266,134.604,50.355L134.604,50.355z M134.866,47.621c-0.479-0.314-0.959-0.627-1.438-0.941   c0.271,1.232,0.541,2.465,0.812,3.697c0.278-0.229,0.557-0.459,0.835-0.688c-0.086-0.677-0.092-0.882,0.298-1.437   C135.203,48.042,135.035,47.832,134.866,47.621L134.866,47.621z M129.821,39.021c1.177,2.378,2.354,4.756,3.53,7.134   c0.107-0.107,0.215-0.215,0.321-0.322C132.811,43.262,131.348,41.269,129.821,39.021L129.821,39.021z M98.247,23.063   c0.144,0.107,0.286,0.214,0.43,0.321c-0.054-0.161-0.107-0.321-0.161-0.482C98.426,22.956,98.337,23.009,98.247,23.063   L98.247,23.063z M98.544,20.983c0.168,0.175,0.337,0.35,0.505,0.524c1.277-0.49,2.574-0.283,3.935-0.233   C101.412,20.849,100.169,20.868,98.544,20.983L98.544,20.983z M98.341,21.166c-0.45,0.136-0.9,0.273-1.351,0.41   c0.337,0.35,0.673,0.699,1.01,1.049c0.05-0.257,0.099-0.515,0.148-0.772c0.275-0.111,0.55-0.223,0.825-0.334   C98.763,21.4,98.552,21.283,98.341,21.166L98.341,21.166z M95.071,21.976c-0.171,0.086-0.343,0.172-0.514,0.258   c0.258,0.05,0.515,0.099,0.772,0.149C95.244,22.247,95.157,22.111,95.071,21.976L95.071,21.976z M117.84,25.052   c0.054,0.125,0.107,0.25,0.162,0.375c0.182-0.011,0.363-0.022,0.546-0.034C118.312,25.28,118.076,25.166,117.84,25.052   L117.84,25.052z M116.305,23.972c-0.144,0-0.286,0-0.429,0c0.3,0.207,0.601,0.414,0.901,0.62c0.179-0.071,0.357-0.144,0.536-0.215   C116.977,24.243,116.641,24.108,116.305,23.972L116.305,23.972z M108.988,22.121c0.294,0.05,0.587,0.099,0.88,0.148   c-0.251-0.178-0.501-0.356-0.752-0.535C109.074,21.863,109.031,21.992,108.988,22.121L108.988,22.121z M107.797,21.19   c-0.086,0.043-0.172,0.086-0.257,0.129c0.404,0.341,0.727,0.428,1.244,0.555c-0.096-0.175-0.193-0.35-0.29-0.525   C108.262,21.296,108.029,21.243,107.797,21.19L107.797,21.19z M107.604,20.697c-0.133,0.075-0.265,0.151-0.396,0.226   c0.285,0.071,0.571,0.142,0.857,0.212C107.911,20.99,107.757,20.844,107.604,20.697L107.604,20.697z M54.889,84.636   c-0.666,1.114-0.039,1.79-0.294,2.938c-0.047,0.212-2.751,4.18,1.2,5.112c1.348-2.589,4.556-6.704,3.273-9.773   C58.267,84.228,56.341,84.263,54.889,84.636L54.889,84.636z M62.765,26.669c-0.161-0.017-0.321-0.035-0.482-0.053   c-0.5,0.43-0.999,0.86-1.499,1.29C61.642,27.873,62.128,27.222,62.765,26.669L62.765,26.669z M62.161,30.112   c-0.369-0.217-0.737-0.435-1.105-0.652c-0.089,0.482-0.177,0.965-0.266,1.448C61.247,30.643,61.704,30.377,62.161,30.112   L62.161,30.112z M64.405,31.963c-0.235,0.029-0.472,0.058-0.708,0.087c-0.152,0.426-0.306,0.851-0.458,1.277   c0.089,0.053,0.179,0.107,0.269,0.161c0.271-0.172,0.542-0.345,0.813-0.517C64.35,32.635,64.377,32.299,64.405,31.963   L64.405,31.963z M63.617,34.773c-0.136-0.164-0.272-0.328-0.408-0.493c-0.107,0.072-0.214,0.144-0.321,0.215   c0.312,0.318,0.624,0.635,0.935,0.953c0.089-0.054,0.178-0.108,0.268-0.162C63.933,35.116,63.775,34.944,63.617,34.773   L63.617,34.773z M75.32,20.684c-0.178,0.107-0.357,0.215-0.535,0.323c0.264-0.079,0.528-0.158,0.792-0.237   C75.491,20.741,75.405,20.712,75.32,20.684L75.32,20.684z M69.455,20.384c2.61-0.801,3.643-2.298,6.62-3.165   c-0.94-0.468-2.694,0.477-3.687,0.779c0.111,0.096,0.222,0.192,0.333,0.289c-0.972,0.202-1.943,0.404-2.916,0.606   c-0.103,0.168-0.207,0.336-0.31,0.504c-0.465,0.037-0.929,0.074-1.394,0.11C68.553,19.8,69.004,20.092,69.455,20.384L69.455,20.384   z M98.257,16.995c-0.502-0.192-0.658-0.284-1.157-0.063c0.332,0.146,0.664,0.292,0.998,0.438   C98.15,17.245,98.204,17.12,98.257,16.995L98.257,16.995z M96.991,16.504c-0.93-0.308-1.717,0.032-2.659,0.263   c1.096,0.113,2.063,0.396,3.045-0.135C97.248,16.589,97.12,16.546,96.991,16.504L96.991,16.504z M80.883,14.24   c-0.079,0.057-0.157,0.115-0.236,0.172c1.194,0.23,2.489,0.542,3.237-0.606C82.884,13.951,81.883,14.095,80.883,14.24L80.883,14.24   z M101.395,14.748c0.854,0.081,1.708,0.162,2.563,0.242c-0.93-0.472-1.815-0.701-2.832-0.938   C101.215,14.284,101.305,14.516,101.395,14.748L101.395,14.748z M119.671,85.09c-0.812,0.828-1.115,1.262-2.293,1.313   c-0.238,0.361-0.477,0.723-0.716,1.084c-0.321-0.214-0.644-0.428-0.966-0.642c-0.188,0.566-0.629,0.938-1.027,1.375   c0.204,1.173,0.212,1.998-0.015,3.174c0.873,0.49,1.178,0.59,2.155,0.393c0.337,0.35,0.674,0.699,1.01,1.049   c0.582-0.391,1.164-0.781,1.746-1.173c0.187-1.328,1.777-2.107,2.792-2.932c-0.551-1.097-0.322-1.806-0.112-3.002   c0.704-0.158,0.938-0.352,1.435-0.882c-0.325-0.239-0.651-0.478-0.977-0.717c-0.036-0.321-0.073-0.643-0.109-0.965   C121.631,84.001,120.911,84.761,119.671,85.09L119.671,85.09z M134.946,95.15c1.494-3.754-1.273-4.435-4.416-5.214   c-0.371,0.329-0.742,0.659-1.113,0.989c0.062,0.746,0.125,1.493,0.187,2.24c0.715,0.213,1.431,0.426,2.146,0.639   c-0.395,0.905-0.79,1.811-1.185,2.716c1.842,0.406,2.045,0.048,3.277-1.379c0.066,0.557,0.132,1.114,0.197,1.672   c0.296-0.104,0.593-0.208,0.889-0.313C134.934,96.05,134.94,95.6,134.946,95.15L134.946,95.15z M123.14,94.025   c-0.1,0.157-0.199,0.314-0.299,0.473c0.146-0.047,0.293-0.094,0.439-0.141c0.061-0.289,0.12-0.579,0.18-0.869   C123.354,93.668,123.247,93.847,123.14,94.025L123.14,94.025z M116.528,96.193c-0.135,0.05-0.271,0.1-0.407,0.15   c0.119,0.146,0.237,0.293,0.355,0.439c0.149-0.129,0.3-0.258,0.449-0.387C116.794,96.328,116.661,96.261,116.528,96.193   L116.528,96.193z M117.184,96.589c-0.082,0.104-0.164,0.207-0.246,0.312c0.136,0.021,0.271,0.042,0.408,0.063   c0.103-0.169,0.206-0.337,0.31-0.505C117.498,96.502,117.341,96.545,117.184,96.589L117.184,96.589z M117.924,96.619   c-0.093,0.172-0.186,0.344-0.278,0.516c0.568-0.063,1.137-0.124,1.705-0.187c-0.223-0.192-0.444-0.385-0.666-0.577   C118.431,96.453,118.177,96.536,117.924,96.619L117.924,96.619z M128.354,79.251c0.058,0.472,0.116,0.943,0.174,1.415   c0.061-0.361,0.121-0.722,0.181-1.083C128.591,79.473,128.473,79.362,128.354,79.251L128.354,79.251z M128.535,78.276   c0.208,0.485,0.417,0.971,0.625,1.457c-0.016-0.458-0.031-0.915-0.046-1.372C128.921,78.332,128.729,78.304,128.535,78.276   L128.535,78.276z M127.806,78.212c-0.054,0.197-0.106,0.394-0.16,0.59c0.169,0.067,0.337,0.135,0.505,0.203   C128.035,78.741,127.921,78.477,127.806,78.212L127.806,78.212z M126.035,77.305c0.118,0.396,0.237,0.793,0.356,1.189   c0.103-0.312,0.206-0.623,0.309-0.933C126.479,77.475,126.257,77.39,126.035,77.305L126.035,77.305z M110.909,89.867   c0.286,0.393,0.573,0.785,0.86,1.178c-0.055-0.482-0.109-0.965-0.163-1.447C111.373,89.688,111.142,89.777,110.909,89.867   L110.909,89.867z M125.358,99.188c0.032,0.154,0.065,0.308,0.098,0.462c0.16-0.126,0.321-0.251,0.481-0.377   C125.744,99.245,125.552,99.217,125.358,99.188z" fill="#2A95B0" fill-rule="evenodd" />
        <path clip-rule="evenodd" d="M21.636,89.919C8.757,49.9,34.424,7.432,75.988,0.32l2.314,7.189   C40.661,13.323,17.14,51.479,28.772,87.623c11.632,36.145,52.992,53.419,86.958,36.188l2.314,7.189   c-8.904,4.338-18.234,6.579-27.465,6.949v7.211c13.495,1.542,24.059,9.225,25.711,18.84H54.87   c1.651-9.615,12.216-17.298,25.71-18.84v-7.54C54.274,134.852,30.391,117.123,21.636,89.919z" fill="#004D40" fill-rule="evenodd" />
    </g>
</svg>
